<?xml version="1.0" encoding="utf-8"?>
<!-- Generator: Adobe Illustrator 27.5.0, SVG Export Plug-In . SVG Version: 6.00 Build 0)  -->
<svg version="1.1" id="Layer_1" xmlns="http://www.w3.org/2000/svg" xmlns:xlink="http://www.w3.org/1999/xlink" x="0px" y="0px"
	 viewBox="0 0 159 53" style="enable-background:new 0 0 159 53;" xml:space="preserve">
<style type="text/css">
	.st0{fill:#BF1920;}
	.st1{fill:#CCCCCC;}
	.st2{fill:#FFFFFF;}
</style>
<g>
	<g>
		<g id="right_00000176747133056235991630000002639760903467341502_">
			<polygon class="st0" points="30.9,19.2 30.9,15 35,15 			"/>
			<polygon class="st0" points="30.3,15 30.3,19.2 26.1,19.2 			"/>
			<polygon class="st0" points="25.5,19.8 25.5,23.9 21.3,23.9 			"/>
			<polygon class="st0" points="25.5,19.2 25.5,15 29.7,15 			"/>
			<polygon class="st0" points="24.9,15 24.9,19.2 20.7,19.2 			"/>
			<polygon class="st0" points="20.7,23.9 20.7,19.8 24.9,19.8 			"/>
			<polygon class="st0" points="25.5,24.5 25.5,28.7 21.3,28.7 			"/>
			<polygon class="st0" points="20.7,28.7 20.7,24.5 24.9,24.5 			"/>
			<polygon class="st0" points="20.7,38.2 20.7,34 24.9,34 			"/>
			<polygon class="st0" points="20.7,29.3 20.7,33.4 24.9,33.4 			"/>
			<polygon class="st0" points="25.5,33.4 25.5,29.3 21.3,29.3 			"/>
			<polygon class="st0" points="26.1,28.7 26.1,24.5 30.3,24.5 			"/>
		</g>
		<g id="left_00000037651690075808161420000016731532629006409642_">
			<polygon class="st1" points="10,19.2 10,15 5.9,15 			"/>
			<polygon class="st1" points="10.6,15 10.6,19.2 14.8,19.2 			"/>
			<polygon class="st1" points="15.4,19.8 15.4,23.9 19.5,23.9 			"/>
			<polygon class="st1" points="15.4,19.2 15.4,15 11.2,15 			"/>
			<polygon class="st1" points="16,15 16,19.2 20.1,19.2 			"/>
			<polygon class="st1" points="20.1,23.9 20.1,19.8 16,19.8 			"/>
			<polygon class="st1" points="15.4,24.5 15.4,28.7 19.5,28.7 			"/>
			<polygon class="st1" points="20.1,28.7 20.1,24.5 16,24.5 			"/>
			<polygon class="st1" points="20.1,38.2 20.1,34 16,34 			"/>
			<polygon class="st1" points="20.1,29.3 20.1,33.4 16,33.4 			"/>
			<polygon class="st1" points="15.4,33.4 15.4,29.3 19.5,29.3 			"/>
			<polygon class="st1" points="14.8,28.7 14.8,24.5 10.6,24.5 			"/>
		</g>
	</g>
	<g>
		<path class="st2" d="M42.9,23v3.8h4.9v0.9h-4.9v4.1h-1v-9.6h6.6V23H42.9z"/>
		<path class="st2" d="M59.8,31.7l-2.2-3.1c-0.2,0-0.5,0-0.8,0h-2.6v3h-1v-9.6h3.6c2.4,0,3.9,1.2,3.9,3.3c0,1.5-0.8,2.6-2.2,3
			l2.3,3.3H59.8z M59.8,25.4c0-1.5-1-2.4-2.9-2.4h-2.5v4.8h2.5C58.8,27.8,59.8,26.9,59.8,25.4z"/>
		<path class="st2" d="M69.1,28.4v3.3h-1v-3.3l-3.8-6.3h1.1l3.3,5.4l3.3-5.4h1L69.1,28.4z"/>
		<path class="st2" d="M84.9,22.1l-4.2,9.6h-1l-4.2-9.6h1.1l3.7,8.3l3.7-8.3H84.9z"/>
		<path class="st2" d="M89,22.1h1v9.6h-1V22.1z"/>
		<path class="st2" d="M94.9,30.5l0.4-0.8c0.7,0.7,1.9,1.2,3.2,1.2c1.8,0,2.6-0.8,2.6-1.7c0-2.6-5.9-1-5.9-4.6
			c0-1.4,1.1-2.6,3.5-2.6c1.1,0,2.2,0.3,3,0.8l-0.3,0.8c-0.8-0.5-1.8-0.8-2.6-0.8c-1.8,0-2.5,0.8-2.5,1.7c0,2.6,5.9,1,5.9,4.5
			c0,1.4-1.1,2.6-3.6,2.6C97.1,31.8,95.7,31.3,94.9,30.5z"/>
		<path class="st2" d="M106.9,27.6v-5.5h1v5.4c0,2.3,1.1,3.3,2.9,3.3c1.9,0,2.9-1,2.9-3.3v-5.4h1v5.5c0,2.7-1.5,4.2-3.9,4.2
			S106.9,30.3,106.9,27.6z"/>
		<path class="st2" d="M126.4,29.1H121l-1.1,2.6h-1.1l4.4-9.6h1l4.4,9.6h-1.1L126.4,29.1z M126,28.3l-2.3-5.1l-2.3,5.1H126z"/>
		<path class="st2" d="M132.9,22.1h1v8.7h5.4v0.9h-6.4V22.1z"/>
		<path class="st2" d="M142.6,30.5l0.4-0.8c0.7,0.7,1.9,1.2,3.2,1.2c1.8,0,2.6-0.8,2.6-1.7c0-2.6-5.9-1-5.9-4.6
			c0-1.4,1.1-2.6,3.5-2.6c1.1,0,2.2,0.3,3,0.8l-0.3,0.8c-0.8-0.5-1.8-0.8-2.6-0.8c-1.8,0-2.5,0.8-2.5,1.7c0,2.6,5.9,1,5.9,4.5
			c0,1.4-1.1,2.6-3.6,2.6C144.8,31.8,143.4,31.3,142.6,30.5z"/>
	</g>
</g>
</svg>
